<svg xmlns="http://www.w3.org/2000/svg" viewBox="0 0 224.6 43.31"><defs><style>.cls-1,.cls-6{fill:#ff301f;}.cls-2,.cls-7{fill:#f69d3b;}.cls-3,.cls-4{fill:#993383;}.cls-4{font-size:21.77px;font-family:Roboto-Medium, Roboto;font-weight:500;}.cls-5{fill:#787878;font-family:Roboto-Bold, Roboto;font-weight:700;}.cls-6{font-family:Roboto-Thin, Roboto;font-weight:200;}.cls-7{font-size:14.4px;font-family:Roboto-Light, Roboto;font-weight:300;letter-spacing:0.24em;}.cls-8{fill:none;stroke:#787878;stroke-miterlimit:10;stroke-width:0.25px;}</style></defs><title>Asset 5</title><g id="Layer_2" data-name="Layer 2"><g id="Layer_1-2" data-name="Layer 1"><path class="cls-1" d="M51.82,28.11a9.62,9.62,0,0,1-1.2-2.25c-.46-1.08-1-2.34-1.51-3.76s-1.16-3-1.83-4.59-1.39-3.25-2.19-4.85a47.38,47.38,0,0,0-2.57-4.51,17.55,17.55,0,0,0-3-3.53,14.93,14.93,0,0,0-3.25-2,16.42,16.42,0,0,0-3-1,18.13,18.13,0,0,0-3.13-.4H19.08v.46a14.5,14.5,0,0,1,2,.28,13.61,13.61,0,0,1,2.2.77,17.92,17.92,0,0,1,2.65,1.52,7.76,7.76,0,0,1,.94.85,14.78,14.78,0,0,1,1,1.14l.45.63a44.88,44.88,0,0,1,3.31,5.7q1.71,3.42,3.42,7.22t3.39,7.61c1.13,2.55,2.2,4.84,3.23,6.87a35,35,0,0,0,2.93,5c.93,1.28,1.78,1.91,2.54,1.91h.52l4.49-12.66Z"/><polygon class="cls-2" points="58.99 41.17 71.78 41.17 71.76 1.25 59.05 1.25 58.99 41.17"/><path class="cls-3" d="M24.12,39.12a10.18,10.18,0,0,1-2.91.4,7.44,7.44,0,0,1-3.76-.94,10.54,10.54,0,0,1-2.85-2.37,5.7,5.7,0,0,1-1.17-2.39,13.52,13.52,0,0,1-.37-3.31V1.25H0V30.79a9.26,9.26,0,0,0,1.88,5.88,7.83,7.83,0,0,0,1.86,1.82A14.7,14.7,0,0,0,6,39.8a19.65,19.65,0,0,0,4.9,1.4,34.43,34.43,0,0,0,5.08.37,36.57,36.57,0,0,0,5.19-.34c3.73-.54,7.31-4,7.31-4S24.66,39,24.12,39.12Z"/><text class="cls-4" transform="translate(79.71 18.62)">Usama<tspan class="cls-5" x="67.92" y="0"> </tspan><tspan class="cls-6" x="73.34" y="0">Munir</tspan></text><text class="cls-7" transform="translate(79.71 39.41)">UI/UX Designer</text><line class="cls-8" x1="79.71" y1="23.07" x2="224.6" y2="23.27"/></g></g></svg>